<?xml version="1.0" encoding="UTF-8"?>
<svg fill="none" viewBox="0 0 240 306" xmlns="http://www.w3.org/2000/svg">
<path d="m120 175-14 89s12-3 14-3 14 3 14 3l-14-89z" fill="#F7CCA1" stroke="#F7CCA1"/>
<path d="m155 175-6 18 16 52-31 19-14-89-14 89-31-19 17-52-7-18h70z" fill="#B27968"/>
<path d="m58 158-19-10-5 34 29-13-5-11z" fill="#B27968"/>
<path d="m182 158-5 11 29 13-5-34-19 10z" fill="#B27968"/>
<path d="m120 175h-35l7 18-17 52 31 19 14-89zm0 0h35l-6 18 16 52-31 19-14-89zm-81-27 19 10 5 11-29 13 5-34zm138 21 5-11 19-10 5 34-29-13z" stroke="#B27968"/>
<path d="m99 158 21 17 21-17h41l-5 11-22 6h-70l-22-6-5-11h41z" fill="#A16646"/>
<path d="m165 245-16-52 21-5-5 57z" fill="#A16646"/>
<path d="m92 193-22-5 5 57 17-52z" fill="#A16646"/>
<path d="m120 175-21-17h-41l5 11 22 6h35zm0 0h35l22-6 5-11h-41l-21 17zm29 18 16 52 5-57-21 5zm-57 0-22-5 5 57 17-52z" stroke="#A16646"/>
<path d="m85 175 7 18-22-5-7-19 22 6z" fill="#FCFFFF"/>
<path d="m170 188-21 5 6-18 22.5-6-7.5 19z" fill="#FCFFFF"/>
<path d="m85 175 7 18-22-5-7-19 22 6z" stroke="#FCFFFF"/>
<path d="m170 188-21 5 6-18 22.5-6-7.5 19z" stroke="#FCFFFF"/>
<path d="m75 245 31 19v9l-7 6 10 10 11 6 11-6 10-10-7-6v-9l31-19 5-57 7-19 29 13-41 63-12 39-12-5-10 10-11 6-11-6-10-10-12 5-12-39-41-63 29-13 7 19 5 57z" fill="#E09B64"/>
<path d="m120 175-21-17h-41l-19-10 28-35 32-18 21 80 21-80 32 18 28 35-19 10h-41l-21 17z" fill="#E09B64"/>
<path d="m75 77 24-6-46-56h-19l41 62z" fill="#E09B64"/>
<path d="m165 77-24-6 46-56h19l-41 62z" fill="#E09B64"/>
<path d="m75 245 31 19v9l-7 6m-24-34 12 39 12-5m-24-34-5-57-7-19-29 13 41 63zm24 34 10 10 11 6 11-6 10-10m24-34-31 19v9l7 6m24-34-12 39-12-5m24-34 41-63-29-13-7 19-5 57zm-45-70-21-17h-41l-19-10 28-35 32-18 21 80zm0 0 21-17h41l19-10-28-35-32-18-21 80zm-21-104-24 6-41-62h19l46 56zm42 0 24 6 41-62h-19l-46 56z" stroke="#E09B64"/>
<path d="m99 95 21 80 21-80v-24h-42v24z" fill="#D17A2B"/>
<path d="m39 148-5 34-33 21 24-80 14 25z" fill="#D17A2B"/>
<path d="m239 203-33-21-5-34 14-25 24 80z" fill="#D17A2B"/>
<path d="M53 15H34L18 32L31 1L53 15Z" fill="#D17A2B"/>
<path d="m206 15h-19l22-14 13 31-16-17z" fill="#D17A2B"/>
<path d="m99 95 21 80 21-80v-24h-42v24z" stroke="#D17A2B"/>
<path d="m39 148-5 34-33 21 24-80 14 25z" stroke="#D17A2B"/>
<path d="m239 203-33-21-5-34 14-25 24 80z" stroke="#D17A2B"/>
<path d="M53 15H34L18 32L31 1L53 15Z" stroke="#D17A2B"/>
<path d="m206 15h-19l22-14 13 31-16-17z" stroke="#D17A2B"/>
<path d="m120 261-14 3v9l14 6 14-6v-9l-14-3z" fill="#606060" stroke="#606060"/>
<path d="m120 279-14-6-7 6 10 10 11 6 11-6 10-10-7-6-14 6z" fill="#14160B" stroke="#14160B"/>
<path d="m120 295 11-6 10-10 12 5-14 11h-38l-14-11 12-5 10 10 11 6z" fill="#A54121"/>
<path d="m75 245-74-42 8 61 66-19z" fill="#A54121"/>
<path d="m231.5 264-66.5-19 74-42-7.5 61z" fill="#A54121"/>
<path d="m99 71v24l-32 18 8-36 24-6z" fill="#A54121"/>
<path d="m173 113-32-18v-24l24 6 8 36z" fill="#A54121"/>
<path d="m120 295 11-6 10-10 12 5-14 11h-19zm0 0-11-6-10-10-12 5 14 11h19zm-119-92 74 42-66 19-8-61zm164 42 66.5 19 7.5-61-74 42zm-66-150v-24l-24 6-8 36 32-18zm42 0 32 18-8-36-24-6v24z" stroke="#A54121"/>
<path d="m120 305c-11 0-19-10-19-10h38s-8 10-19 10z" fill="#D17C2B"/>
<path d="m34 182 41 63-74-42 33-21z" fill="#D17C2B"/>
<path d="m239 203-74 42 41-63 33 21z" fill="#D17C2B"/>
<path d="m120 305c-11 0-19-10-19-10h38s-8 10-19 10z" stroke="#D17C2B"/>
<path d="m34 182 41 63-74-42 33-21z" stroke="#D17C2B"/>
<path d="m239 203-74 42 41-63 33 21z" stroke="#D17C2B"/>
<path d="m18 32 16-17 41 62-8 36-28 35 36-71-50 46-11-41 61-5-57-45z" fill="#632010"/>
<path d="m165 77 41-62 16 17-57 45 61 5-11 41-50-46 36 71-28-35-8-36z" fill="#632010"/>
<path d="m75 77-41-62-16 17 57 45zm0 0-61 5 11 41 50-46zm0 0-36 71 28-35 8-36zm90 0 41-62 16 17-57 45zm0 0 50 46 11-41-61-5zm0 0 36 71-28-35-8-36z" stroke="#632010"/>
<path d="m18 32 57 45-36 71-14-25 50-46-61 5 4-50z" fill="#84321C"/>
<path d="m201 148-36-71 57-45 4 50-61-5 50 46-14 25z" fill="#84321C"/>
<path d="m75 77-57-45-4 50 61-5zm0 0-50 46 14 25 36-71zm90 0 36 71 14-25-50-46zm0 0 61 5-4-50-57 45z" stroke="#84321C"/>
</svg>
